<?xml version="1.0" encoding="UTF-8"?>
<svg width="21px" height="21px" viewBox="0 0 21 21" version="1.1" xmlns="http://www.w3.org/2000/svg" xmlns:xlink="http://www.w3.org/1999/xlink">
    <title>safari</title>
    <g id="High-Fid-Prototype" stroke="none" stroke-width="1" fill="none" fill-rule="evenodd">
        <g id="Home-page-SHADEN" transform="translate(-277, -746)" fill="#FFFFFF">
            <g id="google-button" transform="translate(247, 736)">
                <g id="safari" transform="translate(30, 10)">
                    <path d="M7.93816469,8.07161927 C7.96453922,8.01214512 8.01208694,7.96464985 8.07150845,7.93822273 L14.6297308,5.02351622 C14.8495536,4.92579367 15.07421,5.15039792 14.9764877,5.37022113 L12.0617864,11.9282976 C12.0353593,11.9877193 11.9878116,12.0352671 11.9283901,12.0616942 L5.37027277,14.9765058 C5.15039742,15.0741758 4.92579356,14.8495715 5.02351594,14.6297483 L7.93816469,8.07161927 Z M8.77526719,8.77532674 L13.1840701,6.81588446 L11.2246313,11.2245902 L6.81588096,13.184085 L8.77526719,8.77532674 Z" id="Shape"></path>
                    <path d="M21,10.5 C21,16.2989842 16.2989842,21 10.5,21 C4.70101579,21 0,16.2989842 0,10.5 C0,4.70101579 4.70101579,0 10.5,0 C16.2989842,0 21,4.70101579 21,10.5 Z M20.0052632,10.5 C20.0052632,15.7496132 15.7496132,20.0052632 10.5,20.0052632 C5.25038684,20.0052632 0.994736842,15.7496132 0.994736842,10.5 C0.994736842,5.25038684 5.25038684,0.994736842 10.5,0.994736842 C15.7496132,0.994736842 20.0052632,5.25038684 20.0052632,10.5 Z" id="Shape"></path>
                </g>
            </g>
        </g>
    </g>
</svg>