<?xml version="1.0" encoding="UTF-8"?>
<svg width="136px" height="106px" viewBox="0 0 136 106" version="1.1" xmlns="http://www.w3.org/2000/svg" xmlns:xlink="http://www.w3.org/1999/xlink">
    <title>Group 2</title>
    <g id="High-Fid-Prototype-(Final)" stroke="none" stroke-width="1" fill="none" fill-rule="evenodd">
        <g id="iPhone-15-Pro-what" transform="translate(-54, -327)">
            <g id="Group-2" transform="translate(60, 327)">
                <polyline id="Path-3" stroke="#E3B7AA" stroke-width="10" stroke-linecap="round" stroke-linejoin="round" transform="translate(16.9827, 84.1098) rotate(72) translate(-16.9827, -84.1098)" points="20.1648616 67.8454929 20.1648616 84.1097787 20.1648616 100.374064 13.8005759 100.374064"></polyline>
                <polyline id="Path-3" stroke="#E3B7AA" stroke-width="10" stroke-linecap="round" stroke-linejoin="round" transform="translate(49.9643, 88.7448) rotate(62) translate(-49.9643, -88.7448)" points="53.1464214 72.4804985 53.1464214 88.7447842 53.1464214 105.00907 46.7821357 105.00907"></polyline>
                <path d="M13.6940737,83.4116689 C0.487340546,78.3426886 -0.952795721,63.7602627 0.413475948,57.8334694 C1.09209931,54.8896475 3.09511498,50.7970212 5.66553838,47.7894371 C8.27014561,44.7418555 11.4463514,42.7937865 12.7298061,42.0469599 C14.4298493,41.0577255 16.9533022,40.0461088 20.300165,39.0121098 C23.0481984,21.5170052 30.648126,9.74155363 43.0999478,3.68575512 C51.3903862,-0.346203029 66.4788026,-2.4993016 79.454478,4.90716642 C86.366078,8.85228237 94.953755,18.3355978 96.0004861,23.5025979 C96.4211207,25.5789851 99.1747386,24.804811 104.660062,25.6025931 C112.824728,26.7900573 124.067753,34.8314731 127.666203,44.2727372 C130.620947,52.0251083 130.50768,59.1271192 128.78422,64.4291469 C126.96288,70.0322916 123.861697,73.9753542 122.9895,74.7412406 C121.333868,76.1950704 116.966739,82.2493215 108.153714,83.7604626 C91.1682139,86.6729117 75.2622284,84.9127396 61.0708547,85.2460504 C38.9846024,85.7647871 21.7344907,86.4977247 13.6940737,83.4116689 Z" id="Path-2" fill="#E3B7AA"></path>
                <ellipse id="Oval" stroke="#FFFCF7" stroke-width="2" fill="#000000" cx="37.2290076" cy="36.8403361" rx="5.45038168" ry="5.55462185"></ellipse>
                <ellipse id="Oval" stroke="#FFFCF7" stroke-width="2" fill="#000000" cx="56.0687023" cy="36.8403361" rx="5.45038168" ry="5.55462185"></ellipse>
                <path d="M36.7099237,50.4621849 C39.2950362,54.4957983 42.4375299,56.512605 46.1374046,56.512605 C49.8372793,56.512605 52.9797729,54.4957983 55.5648855,50.4621849" id="Path-4" stroke="#000000" stroke-width="3" stroke-linecap="round" stroke-linejoin="round"></path>
            </g>
        </g>
    </g>
</svg>