<?xml version="1.0" encoding="UTF-8"?>
<svg width="154px" height="102px" viewBox="0 0 154 102" version="1.1" xmlns="http://www.w3.org/2000/svg" xmlns:xlink="http://www.w3.org/1999/xlink">
    <title>Group 2</title>
    <g id="High-Fid-Prototype-(Final)" stroke="none" stroke-width="1" fill="none" fill-rule="evenodd">
        <g id="iPhone-15-Pro-what" transform="translate(-54, -327)">
            <g id="Group-2" transform="translate(60.5311, 327)">
                <ellipse id="Oval" stroke="#F7EEEF" fill="#CFC1C2" cx="84.1279883" cy="84.15" rx="62.7892857" ry="14.35"></ellipse>
                <path d="M19.952268,80.7702994 C6.94871536,75.8618368 5.53073504,61.7411877 6.87598714,56.0020762 C7.54417014,53.1514754 9.51637019,49.1884488 12.0472486,46.276105 C14.611785,43.3250301 17.7391261,41.4386499 19.0028353,40.7154728 C20.676724,39.7575642 23.1613546,38.777982 26.4567271,37.7767263 C29.1624831,20.8356334 36.6454887,9.43307109 48.905744,3.56903954 C57.0686372,-0.335239933 71.9249241,-2.42015705 84.7009738,4.75177282 C91.5062415,8.57196009 99.9618003,17.7549705 100.992428,22.7583489 C101.406591,24.7689839 104.117846,24.0193253 109.518779,24.7918443 C117.557835,25.9417055 128.62789,33.7284765 132.17098,42.8707672 C135.080266,50.3776466 134.968742,57.2547605 133.271797,62.3888906 C131.478477,67.8146024 128.425005,71.6328014 127.566226,72.3744346 C125.936065,73.7822265 121.636124,79.6447597 112.958683,81.108048 C96.2344984,83.9282695 80.5732204,82.2238361 66.6001754,82.5465921 C44.8537117,83.0489022 27.8689863,83.7586301 19.952268,80.7702994 Z" id="Path-2" fill="#3F4B7F"></path>
                <polyline id="Path-3" stroke="#3F4B7F" stroke-width="10" stroke-linecap="round" stroke-linejoin="round" transform="translate(16.4516, 82.1098) rotate(72) translate(-16.4516, -82.1098)" points="19.633734 65.8454929 19.633734 82.1097787 19.633734 98.3740644 13.2694483 98.3740644"></polyline>
                <polyline id="Path-3" stroke="#3F4B7F" stroke-width="10" stroke-linecap="round" stroke-linejoin="round" transform="translate(51.4332, 84.7448) rotate(62) translate(-51.4332, -84.7448)" points="54.6152937 68.4804985 54.6152937 84.7447842 54.6152937 101.00907 48.251008 101.00907"></polyline>
                <path d="M40.9268015,38.2946051 L42.0576727,38.2951207 L42.9358384,38.2945662 C44.5092858,38.3000228 45.8977581,38.3028942 46.80025,38.8804695 C47.3774131,39.2498414 47.6310345,39.916901 47.6310345,40.9371552 C47.6310345,42.577549 46.9573885,44.0621033 45.8699125,45.1369158 C44.7781722,46.2159429 43.2696772,46.8823529 41.6040075,46.8823529 C39.9383378,46.8823529 38.4298428,46.2159429 37.3381025,45.1369158 C36.2506265,44.0621033 35.5769805,42.577549 35.5769805,40.9371552 C35.5769805,39.916901 35.8306019,39.2498414 36.407765,38.8804695 C37.3102569,38.3028942 38.6987292,38.3000228 40.2686585,38.2945722 L40.9268015,38.2946051 Z" id="Oval" stroke="#FFFCF7" stroke-width="2" fill="#000000"></path>
                <path d="M62.0078906,38.2945825 L63.1386907,38.295089 L64.0168271,38.2945898 C65.5901799,38.3001914 66.9785719,38.3034978 67.8810559,38.8812313 C68.4583287,39.2507778 68.7121156,39.9179134 68.7121156,40.9382085 C68.7121156,42.5782944 68.0384818,44.0625628 66.9510475,45.137171 C65.8592934,46.2160481 64.3507759,46.8823529 62.6850886,46.8823529 C61.0194012,46.8823529 59.5108838,46.2160481 58.4191297,45.137171 C57.3316954,44.0625628 56.6580616,42.5782944 56.6580616,40.9382085 C56.6580616,39.9179134 56.9118485,39.2507778 57.4891212,38.8812313 C58.3916053,38.3034978 59.7799973,38.3001914 61.3498103,38.2945961 L62.0078906,38.2945825 Z" id="Oval" stroke="#FFFCF7" stroke-width="2" fill="#000000"></path>
                <path d="M39.8472507,56.7058824 C41.2240556,55.5294118 42.5029085,54.9411765 43.6838094,54.9411765 C45.4551606,54.9411765 47.3766342,56.7058824 49.5094129,56.7058824 C51.1804321,56.7058824 52.501143,54.9411765 54.340494,54.9411765 C55.566728,54.9411765 57.1770883,55.5294118 59.1715751,56.7058824" id="Path-4" stroke="#000000" stroke-width="3" stroke-linecap="round" stroke-linejoin="round"></path>
            </g>
        </g>
    </g>
</svg>