<?xml version="1.0" encoding="UTF-8"?>
<svg width="74px" height="71px" viewBox="0 0 74 71" version="1.1" xmlns="http://www.w3.org/2000/svg" xmlns:xlink="http://www.w3.org/1999/xlink">
    <title>small_angry</title>
    <g id="High-Fid-Prototype-(Final)" stroke="none" stroke-width="1" fill="none" fill-rule="evenodd">
        <g id="iPhone-15-Pro-home-" transform="translate(-295, -619)">
            <g id="small_angry" transform="translate(295, 619)">
                <polyline id="Path-3" stroke="#915E65" stroke-width="5" stroke-linecap="round" stroke-linejoin="round" points="25 42 25 54.5 25 67 20 67"></polyline>
                <polyline id="Path-3" stroke="#915E65" stroke-width="5" stroke-linecap="round" stroke-linejoin="round" points="44 43 44 55.5 44 68 39 68"></polyline>
                <path d="M7.79508812,46.7105346 C0.277409234,43.8719056 -0.542360641,35.7057471 0.235363232,32.3867429 C0.621656529,30.7382026 1.76183468,28.4463319 3.22499877,26.7620848 C4.70762134,25.0554391 6.51561543,23.9645204 7.24619731,23.5462975 C8.2139142,22.9923263 9.65034128,22.4258209 11.5554785,21.8467815 C13.1197437,12.0495229 17.4458563,5.45527003 24.5338164,2.06402287 C29.252989,-0.193873696 37.8417799,-1.3996089 45.2279336,2.7480132 C49.162229,4.95727813 54.050599,10.2679347 54.6464305,13.1614548 C54.8858687,14.3242317 56.4533128,13.8906941 59.5757274,14.3374521 C64.2233068,15.0024321 70.6231822,19.5056249 72.6715307,24.7927329 C74.353462,29.1340607 74.2889871,33.1111868 73.3079407,36.0803223 C72.2711779,39.2180833 70.5058891,41.4261984 70.0094077,41.8550947 C69.0669709,42.6692394 66.5810671,46.05962 61.5644219,46.9058591 C51.8957526,48.5368306 42.8415762,47.5511342 34.7634096,47.7377882 C22.1912352,48.0282808 12.3719409,48.4387258 7.79508812,46.7105346 Z" id="Path-2" fill="#915E65"></path>
                <path d="M17.2529189,20.8136745 C17.7662926,20.4237021 18.5986898,20.3817235 19.8616614,20.745354 C20.1035324,20.8149927 20.3311609,20.879778 20.5453577,20.9407398 C21.9146705,21.3304551 22.7066949,21.5269662 23.1372166,21.8959503 C23.4756171,22.1859809 23.5,22.6102564 23.5,23.3033789 C23.5,24.181891 23.1112427,24.9750994 22.4890733,25.5500805 C21.8520639,26.1387761 20.9712726,26.5 20,26.5 C19.0287274,26.5 18.1479361,26.1387761 17.5109267,25.5500805 C16.8887573,24.9750994 16.5,24.181891 16.5,23.3033789 C16.5,22.3311817 16.5820617,21.3232754 17.2529189,20.8136745 Z" id="Oval" stroke="#FFFCF7" fill="#000000"></path>
                <path d="M29.2529189,20.8136745 C29.7662926,20.4237021 30.5986898,20.3817235 31.8616614,20.745354 C32.1035324,20.8149927 32.3311609,20.879778 32.5453577,20.9407398 C33.9146705,21.3304551 34.7066949,21.5269662 35.1372166,21.8959503 C35.4756171,22.1859809 35.5,22.6102564 35.5,23.3033789 C35.5,24.181891 35.1112427,24.9750994 34.4890733,25.5500805 C33.8520639,26.1387761 32.9712726,26.5 32,26.5 C31.0287274,26.5 30.1479361,26.1387761 29.5109267,25.5500805 C28.8887573,24.9750994 28.5,24.181891 28.5,23.3033789 C28.5,22.3311817 28.5820617,21.3232754 29.2529189,20.8136745 Z" id="Oval-Copy" stroke="#FFFCF7" fill="#000000" transform="translate(32, 23.5) scale(-1, 1) translate(-32, -23.5)"></path>
                <path d="M20,31.5 C21.5081568,31.5 23.3414901,31.5 25.5,31.5 C27.6585099,31.5 29.4918432,31.5 31,31.5" id="Path-4" stroke="#000000" stroke-width="3" stroke-linecap="round" stroke-linejoin="round"></path>
            </g>
        </g>
    </g>
</svg>