<?xml version="1.0" encoding="UTF-8"?>
<svg width="146px" height="131px" viewBox="0 0 146 131" version="1.1" xmlns="http://www.w3.org/2000/svg" xmlns:xlink="http://www.w3.org/1999/xlink">
    <title>small_angry</title>
    <g id="High-Fid-Prototype-(Final)" stroke="none" stroke-width="1" fill="none" fill-rule="evenodd">
        <g id="iPhone-15-Pro-happy" transform="translate(-120, -330)">
            <g id="small_angry" transform="translate(120, 330)">
                <ellipse id="Oval" stroke="#CFC1C2" fill="#CFC1C2" cx="77.2846715" cy="115.343066" rx="67.3467153" ry="15.1569343"></ellipse>
                <polyline id="Path-3" stroke="#915E65" stroke-width="5" stroke-linecap="round" stroke-linejoin="round" points="43.9189189 74.1176471 43.9189189 96.1764706 43.9189189 118.235294 35.1351351 118.235294"></polyline>
                <polyline id="Path-3" stroke="#915E65" stroke-width="5" stroke-linecap="round" stroke-linejoin="round" points="77.2972973 75.8823529 77.2972973 97.9411765 77.2972973 120 68.5135135 120"></polyline>
                <path d="M13.6940737,82.4303551 C0.487340546,77.4210099 -0.952795721,63.010142 0.413475948,57.1530756 C1.09209931,54.243887 3.09511498,50.1994092 5.66553838,47.2272085 C8.27014561,44.2154808 11.4463514,42.2903302 12.7298061,41.5522897 C14.4298493,40.5746934 16.9533022,39.5749781 20.300165,38.5531438 C23.0481984,21.2638639 30.648126,9.62694711 43.0999478,3.64239329 C51.3903862,-0.342130052 66.4788026,-2.46989805 79.454478,4.84943505 C86.366078,8.74813787 94.953755,18.1198848 96.0004861,23.2260967 C96.4211207,25.2780559 99.1747386,24.5129897 104.660062,25.3013861 C112.824728,26.4748802 124.067753,34.4216911 127.666203,43.7518815 C130.620947,51.4130482 130.50768,58.4315061 128.78422,63.671157 C126.96288,69.2083823 123.861697,73.105056 122.9895,73.8619319 C121.333868,75.2986578 116.966739,81.2816824 108.153714,82.7750454 C91.1682139,85.6532304 75.2622284,83.9137662 61.0708547,84.2431557 C38.9846024,84.7557897 21.7344907,85.4801044 13.6940737,82.4303551 Z" id="Path-2" fill="#915E65"></path>
                <path d="M30.3844813,36.8223787 C31.2657426,36.1499201 32.698523,36.0978083 34.8573024,36.7221693 C35.2823412,36.8450987 35.6823516,36.9594609 36.0587585,37.0670735 C38.4369911,37.7469967 39.8173603,38.0835762 40.5656227,38.7277861 C41.1390771,39.2214965 41.1621622,39.9514623 41.1621622,41.1236099 C41.1621622,42.6408949 40.4932377,44.0105538 39.4236348,45.0035057 C38.326112,46.0223767 36.8084283,46.6470588 35.1351351,46.6470588 C33.461842,46.6470588 31.9441583,46.0223767 30.8466355,45.0035057 C29.7770326,44.0105538 29.1081081,42.6408949 29.1081081,41.1236099 C29.1081081,39.4505649 29.2307244,37.7027689 30.3844813,36.8223787 Z" id="Oval" stroke="#FFFCF7" stroke-width="2" fill="#000000"></path>
                <path d="M51.4655624,36.8223787 C52.3468237,36.1499201 53.7796041,36.0978083 55.9383835,36.7221693 C56.3634222,36.8450987 56.7634327,36.9594609 57.1398396,37.0670735 C59.5180722,37.7469967 60.8984414,38.0835762 61.6467038,38.7277861 C62.2201581,39.2214965 62.2432432,39.9514623 62.2432432,41.1236099 C62.2432432,42.6408949 61.5743188,44.0105538 60.5047159,45.0035057 C59.4071931,46.0223767 57.8895094,46.6470588 56.2162162,46.6470588 C54.542923,46.6470588 53.0252393,46.0223767 51.9277166,45.0035057 C50.8581137,44.0105538 50.1891892,42.6408949 50.1891892,41.1236099 C50.1891892,39.4505649 50.3118055,37.7027689 51.4655624,36.8223787 Z" id="Oval-Copy" stroke="#FFFCF7" stroke-width="2" fill="#000000" transform="translate(56.2162, 41.4706) scale(-1, 1) translate(-56.2162, -41.4706)"></path>
                <path d="M35.1351351,55.5882353 C37.7845997,55.5882353 41.0053204,55.5882353 44.7972973,55.5882353 C48.5892742,55.5882353 51.8099949,55.5882353 54.4594595,55.5882353" id="Path-4" stroke="#000000" stroke-width="3" stroke-linecap="round" stroke-linejoin="round"></path>
            </g>
        </g>
    </g>
</svg>