<?xml version="1.0" encoding="UTF-8"?>
<svg width="24px" height="17px" viewBox="0 0 24 17" version="1.1" xmlns="http://www.w3.org/2000/svg" xmlns:xlink="http://www.w3.org/1999/xlink">
    <title>youtube</title>
    <g id="High-Fid-Prototype" stroke="none" stroke-width="1" fill="none" fill-rule="evenodd">
        <g id="Home-page-SHADEN" transform="translate(-95, -748)" fill="#FFFFFF">
            <g id="youtube" transform="translate(95, 748)">
                <path d="M10,5.48231921 C10,5.1115887 10.3889639,4.87989073 10.700175,5.06522159 L15.7666417,8.08293629 C16.0777861,8.26833594 16.0777861,8.73166309 15.7666417,8.91706274 L10.700175,11.9347774 C10.3889639,12.1201083 10,11.8884103 10,11.5177486 L10,5.48231921 Z M14.4663166,8.50003391 L11.0002501,10.5644711 L11.0002501,6.43552796 L14.4663166,8.50003391 Z" id="Shape"></path>
                <path d="M20.5381263,16.6335378 C22.1928632,16.48753 23.5373684,15.2135367 23.724,13.5378778 C23.9047579,11.9148637 24,10.2292657 24,8.5 C24,6.77079844 23.9047579,5.08513632 23.724,3.46212224 C23.5373684,1.78646328 22.1928632,0.512470013 20.5381263,0.366462228 C17.8366737,0.128181626 14.9699368,0 12,0 C9.03,0 6.16326316,0.128181626 3.46187368,0.366462228 C1.80713684,0.512470013 0.462631579,1.78646328 0.276,3.46212224 C0.0952421053,5.08513632 0,6.77079844 0,8.5 C0,10.2292657 0.0952421053,11.9148637 0.276,13.5378778 C0.462631579,15.2136008 1.80713684,16.48753 3.46187368,16.6335378 C6.16326316,16.8718184 9.03,17 12,17 C14.9699368,17 17.8366737,16.8718184 20.5381263,16.6335378 Z M22.7368421,8.5 C22.7368421,10.1816224 22.6441895,11.8191282 22.4688632,13.3937937 C22.3528421,14.4352774 21.5122105,15.2602823 20.4288,15.3558895 C17.7648,15.5908998 14.9345053,15.7175425 12,15.7175425 C9.06543158,15.7175425 6.2352,15.5908998 3.57126316,15.3558895 C2.48778947,15.2602823 1.64715789,14.4352774 1.53113684,13.3937937 C1.35581053,11.8191282 1.26315789,10.1816224 1.26315789,8.5 C1.26315789,6.81837762 1.35581053,5.18087177 1.53113684,3.60620634 C1.64715789,2.56472261 2.48778947,1.73971771 3.57126316,1.6441105 C6.2352,1.40910017 9.06543158,1.28245749 12,1.28245749 C14.9345053,1.28245749 17.7648,1.40910017 20.4288,1.6441105 C21.5122105,1.73971771 22.3528421,2.56472261 22.4688632,3.60620634 C22.6441895,5.18087177 22.7368421,6.81837762 22.7368421,8.5 Z" id="Shape"></path>
            </g>
        </g>
    </g>
</svg>