<?xml version="1.0" encoding="UTF-8"?>
<svg width="74px" height="71px" viewBox="0 0 74 71" version="1.1" xmlns="http://www.w3.org/2000/svg" xmlns:xlink="http://www.w3.org/1999/xlink">
    <title>small_grumpy</title>
    <g id="High-Fid-Prototype-(Final)" stroke="none" stroke-width="1" fill="none" fill-rule="evenodd">
        <g id="iPhone-15-Pro-home-" transform="translate(-24, -619)">
            <g id="small_grumpy" transform="translate(24, 619)">
                <polyline id="Path-3" stroke="#3F4B7F" stroke-width="5" stroke-linecap="round" stroke-linejoin="round" points="28 42 28 54.5 28 67 23 67"></polyline>
                <polyline id="Path-3" stroke="#3F4B7F" stroke-width="5" stroke-linecap="round" stroke-linejoin="round" points="47 43 47 55.5 47 68 42 68"></polyline>
                <path d="M7.79508812,46.7105346 C0.277409234,43.8719056 -0.542360641,35.7057471 0.235363232,32.3867429 C0.621656529,30.7382026 1.76183468,28.4463319 3.22499877,26.7620848 C4.70762134,25.0554391 6.51561543,23.9645204 7.24619731,23.5462975 C8.2139142,22.9923263 9.65034128,22.4258209 11.5554785,21.8467815 C13.1197437,12.0495229 17.4458563,5.45527003 24.5338164,2.06402287 C29.252989,-0.193873696 37.8417799,-1.3996089 45.2279336,2.7480132 C49.162229,4.95727813 54.050599,10.2679347 54.6464305,13.1614548 C54.8858687,14.3242317 56.4533128,13.8906941 59.5757274,14.3374521 C64.2233068,15.0024321 70.6231822,19.5056249 72.6715307,24.7927329 C74.353462,29.1340607 74.2889871,33.1111868 73.3079407,36.0803223 C72.2711779,39.2180833 70.5058891,41.4261984 70.0094077,41.8550947 C69.0669709,42.6692394 66.5810671,46.05962 61.5644219,46.9058591 C51.8957526,48.5368306 42.8415762,47.5511342 34.7634096,47.7377882 C22.1912352,48.0282808 12.3719409,48.4387258 7.79508812,46.7105346 Z" id="Path-2" fill="#3F4B7F"></path>
                <path d="M20.7804126,20.5003373 C21.6853708,20.504011 22.4809667,20.5129068 22.9990354,20.8452452 C23.3413379,21.0648305 23.5,21.4564942 23.5,22.0643879 C23.5,23.01219 23.1089059,23.8698832 22.4777539,24.4908756 C21.8436414,25.1147808 20.9674382,25.5 20,25.5 C19.0325618,25.5 18.1563586,25.1147808 17.5222461,24.4908756 C16.8910941,23.8698832 16.5,23.01219 16.5,22.0643879 C16.5,21.4564942 16.6586621,21.0648305 17.0009646,20.8452452 C17.5190333,20.5129068 18.3146292,20.504011 19.2175576,20.5003414 Z" id="Oval" stroke="#FFFCF7" fill="#000000"></path>
                <path d="M32.7803654,20.5003528 C33.6852708,20.5041118 34.4808228,20.5132536 34.9988881,20.8456834 C35.3412515,21.0653696 35.5,21.4570798 35.5,22.0649848 C35.5,23.0126136 35.108912,23.8701463 34.477781,24.4910238 C33.8436615,25.1148412 32.9674471,25.5 32,25.5 C31.0325529,25.5 30.1563385,25.1148412 29.522219,24.4910238 C28.891088,23.8701463 28.5,23.0126136 28.5,22.0649848 C28.5,21.4570798 28.6587485,21.0653696 29.0011119,20.8456834 C29.5191772,20.5132536 30.3147292,20.5041118 31.2175576,20.5003571 Z" id="Oval" stroke="#FFFCF7" fill="#000000"></path>
                <path d="M19,31 C19.7837197,30.3333333 20.5116821,30 21.1838872,30 C22.1921949,30 23.2859567,31 24.5,31 C25.4511955,31 26.2029848,30 27.25,30 C27.9480101,30 28.8646768,30.3333333 30,31" id="Path-4" stroke="#000000" stroke-width="3" stroke-linecap="round" stroke-linejoin="round"></path>
            </g>
        </g>
    </g>
</svg>