<?xml version="1.0" encoding="UTF-8"?>
<svg width="136px" height="102px" viewBox="0 0 136 102" version="1.1" xmlns="http://www.w3.org/2000/svg" xmlns:xlink="http://www.w3.org/1999/xlink">
    <title>Group 2</title>
    <g id="High-Fid-Prototype-(Final)" stroke="none" stroke-width="1" fill="none" fill-rule="evenodd">
        <g id="iPhone-15-Pro-what" transform="translate(-54, -327)">
            <g id="Group-2" transform="translate(60, 327)">
                <polyline id="Path-3" stroke="#915E65" stroke-width="10" stroke-linecap="round" stroke-linejoin="round" transform="translate(16.9827, 82.1098) rotate(72) translate(-16.9827, -82.1098)" points="20.1648616 65.8454929 20.1648616 82.1097787 20.1648616 98.3740644 13.8005759 98.3740644"></polyline>
                <polyline id="Path-3" stroke="#915E65" stroke-width="10" stroke-linecap="round" stroke-linejoin="round" transform="translate(51.9643, 84.7448) rotate(62) translate(-51.9643, -84.7448)" points="55.1464214 68.4804985 55.1464214 84.7447842 55.1464214 101.00907 48.7821357 101.00907"></polyline>
                <path d="M13.6940737,82.4303551 C0.487340546,77.4210099 -0.952795721,63.010142 0.413475948,57.1530756 C1.09209931,54.243887 3.09511498,50.1994092 5.66553838,47.2272085 C8.27014561,44.2154808 11.4463514,42.2903302 12.7298061,41.5522897 C14.4298493,40.5746934 16.9533022,39.5749781 20.300165,38.5531438 C23.0481984,21.2638639 30.648126,9.62694711 43.0999478,3.64239329 C51.3903862,-0.342130052 66.4788026,-2.46989805 79.454478,4.84943505 C86.366078,8.74813787 94.953755,18.1198848 96.0004861,23.2260967 C96.4211207,25.2780559 99.1747386,24.5129897 104.660062,25.3013861 C112.824728,26.4748802 124.067753,34.4216911 127.666203,43.7518815 C130.620947,51.4130482 130.50768,58.4315061 128.78422,63.671157 C126.96288,69.2083823 123.861697,73.105056 122.9895,73.8619319 C121.333868,75.2986578 116.966739,81.2816824 108.153714,82.7750454 C91.1682139,85.6532304 75.2622284,83.9137662 61.0708547,84.2431557 C38.9846024,84.7557897 21.7344907,85.4801044 13.6940737,82.4303551 Z" id="Path-2" fill="#915E65"></path>
                <path d="M30.0811683,36.4248851 C31.0453782,35.6891314 32.5975983,35.5481269 34.9962188,36.2418545 C35.4207354,36.364633 35.8202546,36.478854 36.1961991,36.5863344 C38.6851772,37.2979192 40.1108563,37.6764826 40.8918473,38.3488699 C41.5559975,38.920664 41.6621622,39.7310678 41.6621622,41.1236099 C41.6621622,42.7829528 40.9344365,44.2832133 39.7638142,45.3699453 C38.5792319,46.4696368 36.9420117,47.1470588 35.1351351,47.1470588 C33.3282586,47.1470588 31.6910384,46.4696368 30.5064561,45.3699453 C29.3358337,44.2832133 28.6081081,42.7829528 28.6081081,41.1236099 C28.6081081,39.2670561 28.8207881,37.3866356 30.0811683,36.4248851 Z" id="Oval" stroke="#FFFCF7" fill="#000000"></path>
                <path d="M51.1622494,36.4248851 C52.1264593,35.6891314 53.6786794,35.5481269 56.0772999,36.2418545 C56.5018164,36.364633 56.9013357,36.478854 57.2772802,36.5863344 C59.7662583,37.2979192 61.1919374,37.6764826 61.9729284,38.3488699 C62.6370785,38.920664 62.7432432,39.7310678 62.7432432,41.1236099 C62.7432432,42.7829528 62.0155176,44.2832133 60.8448953,45.3699453 C59.660313,46.4696368 58.0230928,47.1470588 56.2162162,47.1470588 C54.4093397,47.1470588 52.7721194,46.4696368 51.5875372,45.3699453 C50.4169148,44.2832133 49.6891892,42.7829528 49.6891892,41.1236099 C49.6891892,39.2670561 49.9018692,37.3866356 51.1622494,36.4248851 Z" id="Oval-Copy" stroke="#FFFCF7" fill="#000000" transform="translate(56.2162, 41.4706) scale(-1, 1) translate(-56.2162, -41.4706)"></path>
                <path d="M35.1351351,55.5882353 C37.7845997,55.5882353 41.0053204,55.5882353 44.7972973,55.5882353 C48.5892742,55.5882353 51.8099949,55.5882353 54.4594595,55.5882353" id="Path-4" stroke="#000000" stroke-width="3" stroke-linecap="round" stroke-linejoin="round"></path>
            </g>
        </g>
    </g>
</svg>