<?xml version="1.0" encoding="UTF-8"?>
<svg width="146px" height="131px" viewBox="0 0 146 131" version="1.1" xmlns="http://www.w3.org/2000/svg" xmlns:xlink="http://www.w3.org/1999/xlink">
    <title>small_grumpy</title>
    <g id="High-Fid-Prototype-(Final)" stroke="none" stroke-width="1" fill="none" fill-rule="evenodd">
        <g id="iPhone-15-Pro-happy" transform="translate(-120, -330)">
            <g id="small_grumpy" transform="translate(120, 330)">
                <ellipse id="Oval" stroke="#CFC1C2" fill="#CFC1C2" cx="77.2846715" cy="115.343066" rx="67.3467153" ry="15.1569343"></ellipse>
                <polyline id="Path-3" stroke="#3F4B7F" stroke-width="5" stroke-linecap="round" stroke-linejoin="round" points="49.1891892 74.1176471 49.1891892 96.1764706 49.1891892 118.235294 40.4054054 118.235294"></polyline>
                <polyline id="Path-3" stroke="#3F4B7F" stroke-width="5" stroke-linecap="round" stroke-linejoin="round" points="82.5675676 75.8823529 82.5675676 97.9411765 82.5675676 120 73.7837838 120"></polyline>
                <path d="M13.6940737,82.4303551 C0.487340546,77.4210099 -0.952795721,63.010142 0.413475948,57.1530756 C1.09209931,54.243887 3.09511498,50.1994092 5.66553838,47.2272085 C8.27014561,44.2154808 11.4463514,42.2903302 12.7298061,41.5522897 C14.4298493,40.5746934 16.9533022,39.5749781 20.300165,38.5531438 C23.0481984,21.2638639 30.648126,9.62694711 43.0999478,3.64239329 C51.3903862,-0.342130052 66.4788026,-2.46989805 79.454478,4.84943505 C86.366078,8.74813787 94.953755,18.1198848 96.0004861,23.2260967 C96.4211207,25.2780559 99.1747386,24.5129897 104.660062,25.3013861 C112.824728,26.4748802 124.067753,34.4216911 127.666203,43.7518815 C130.620947,51.4130482 130.50768,58.4315061 128.78422,63.671157 C126.96288,69.2083823 123.861697,73.105056 122.9895,73.8619319 C121.333868,75.2986578 116.966739,81.2816824 108.153714,82.7750454 C91.1682139,85.6532304 75.2622284,83.9137662 61.0708547,84.2431557 C38.9846024,84.7557897 21.7344907,85.4801044 13.6940737,82.4303551 Z" id="Path-2" fill="#3F4B7F"></path>
                <path d="M34.4579291,36.2946051 L35.5888003,36.2951207 L36.466966,36.2945662 C38.0404135,36.3000228 39.4288858,36.3028942 40.3313776,36.8804695 C40.9085408,37.2498414 41.1621622,37.916901 41.1621622,38.9371552 C41.1621622,40.577549 40.4885162,42.0621033 39.4010401,43.1369158 C38.3092998,44.2159429 36.8008048,44.8823529 35.1351351,44.8823529 C33.4694655,44.8823529 31.9609705,44.2159429 30.8692302,43.1369158 C29.7817541,42.0621033 29.1081081,40.577549 29.1081081,38.9371552 C29.1081081,37.916901 29.3617295,37.2498414 29.9388926,36.8804695 C30.8413845,36.3028942 32.2298568,36.3000228 33.7997862,36.2945722 L34.4579291,36.2946051 Z" id="Oval" stroke="#FFFCF7" stroke-width="2" fill="#000000"></path>
                <path d="M55.5390182,36.2945825 L56.6698183,36.295089 L57.5479547,36.2945898 C59.1213075,36.3001914 60.5096995,36.3034978 61.4121836,36.8812313 C61.9894563,37.2507778 62.2432432,37.9179134 62.2432432,38.9382085 C62.2432432,40.5782944 61.5696094,42.0625628 60.4821751,43.137171 C59.390421,44.2160481 57.8819035,44.8823529 56.2162162,44.8823529 C54.5505289,44.8823529 53.0420114,44.2160481 51.9502573,43.137171 C50.862823,42.0625628 50.1891892,40.5782944 50.1891892,38.9382085 C50.1891892,37.9179134 50.4429761,37.2507778 51.0202489,36.8812313 C51.9227329,36.3034978 53.3111249,36.3001914 54.8809379,36.2945961 L55.5390182,36.2945825 Z" id="Oval" stroke="#FFFCF7" stroke-width="2" fill="#000000"></path>
                <path d="M33.3783784,54.7058824 C34.7551833,53.5294118 36.0340362,52.9411765 37.214937,52.9411765 C38.9862883,52.9411765 40.9077619,54.7058824 43.0405405,54.7058824 C44.7115597,54.7058824 46.0322706,52.9411765 47.8716216,52.9411765 C49.0978556,52.9411765 50.708216,53.5294118 52.7027027,54.7058824" id="Path-4" stroke="#000000" stroke-width="3" stroke-linecap="round" stroke-linejoin="round"></path>
            </g>
        </g>
    </g>
</svg>