<?xml version="1.0" encoding="UTF-8"?>
<svg width="128px" height="83px" viewBox="0 0 128 83" version="1.1" xmlns="http://www.w3.org/2000/svg" xmlns:xlink="http://www.w3.org/1999/xlink">
    <title>Group 2</title>
    <g id="High-Fid-Prototype-(Final)" stroke="none" stroke-width="1" fill="none" fill-rule="evenodd">
        <g id="Group-2">
            <path d="M13.4833957,80.7702994 C0.479842999,75.8618368 -0.938137326,61.7411877 0.407114779,56.0020762 C1.07529778,53.1514754 3.04749782,49.1884488 5.57837625,46.276105 C8.1429126,43.3250301 11.2702537,41.4386499 12.5339629,40.7154728 C14.2078516,39.7575642 16.6924822,38.777982 19.9878548,37.7767263 C22.6936107,20.8356334 30.1766163,9.43307109 42.4368717,3.56903954 C50.5997648,-0.335239933 65.4560518,-2.42015705 78.2321014,4.75177282 C85.0373691,8.57196009 93.492928,17.7549705 94.5235555,22.7583489 C94.9377188,24.7689839 97.6489734,24.0193253 103.049907,24.7918443 C111.088963,25.9417055 122.159018,33.7284765 125.702107,42.8707672 C128.611394,50.3776466 128.49987,57.2547605 126.802924,62.3888906 C125.009605,67.8146024 121.956133,71.6328014 121.097354,72.3744346 C119.467193,73.7822265 115.167251,79.6447597 106.489811,81.108048 C89.765626,83.9282695 74.104348,82.2238361 60.1313031,82.5465921 C38.3848393,83.0489022 21.4001139,83.7586301 13.4833957,80.7702994 Z" id="Path-2" fill="#3F4B7F"></path>
            <path d="M34.4579291,38.2946051 L35.5888003,38.2951207 L36.466966,38.2945662 C38.0404135,38.3000228 39.4288858,38.3028942 40.3313776,38.8804695 C40.9085408,39.2498414 41.1621622,39.916901 41.1621622,40.9371552 C41.1621622,42.577549 40.4885162,44.0621033 39.4010401,45.1369158 C38.3092998,46.2159429 36.8008048,46.8823529 35.1351351,46.8823529 C33.4694655,46.8823529 31.9609705,46.2159429 30.8692302,45.1369158 C29.7817541,44.0621033 29.1081081,42.577549 29.1081081,40.9371552 C29.1081081,39.916901 29.3617295,39.2498414 29.9388926,38.8804695 C30.8413845,38.3028942 32.2298568,38.3000228 33.7997862,38.2945722 L34.4579291,38.2946051 Z" id="Oval" stroke="#FFFCF7" stroke-width="2" fill="#000000"></path>
            <path d="M55.5390182,38.2945825 L56.6698183,38.295089 L57.5479547,38.2945898 C59.1213075,38.3001914 60.5096995,38.3034978 61.4121836,38.8812313 C61.9894563,39.2507778 62.2432432,39.9179134 62.2432432,40.9382085 C62.2432432,42.5782944 61.5696094,44.0625628 60.4821751,45.137171 C59.390421,46.2160481 57.8819035,46.8823529 56.2162162,46.8823529 C54.5505289,46.8823529 53.0420114,46.2160481 51.9502573,45.137171 C50.862823,44.0625628 50.1891892,42.5782944 50.1891892,40.9382085 C50.1891892,39.9179134 50.4429761,39.2507778 51.0202489,38.8812313 C51.9227329,38.3034978 53.3111249,38.3001914 54.8809379,38.2945961 L55.5390182,38.2945825 Z" id="Oval" stroke="#FFFCF7" stroke-width="2" fill="#000000"></path>
            <path d="M33.3783784,56.7058824 C34.7551833,55.5294118 36.0340362,54.9411765 37.214937,54.9411765 C38.9862883,54.9411765 40.9077619,56.7058824 43.0405405,56.7058824 C44.7115597,56.7058824 46.0322706,54.9411765 47.8716216,54.9411765 C49.0978556,54.9411765 50.708216,55.5294118 52.7027027,56.7058824" id="Path-4" stroke="#000000" stroke-width="3" stroke-linecap="round" stroke-linejoin="round"></path>
        </g>
    </g>
</svg>