<?xml version="1.0" encoding="UTF-8"?>
<svg width="141px" height="102px" viewBox="0 0 141 102" version="1.1" xmlns="http://www.w3.org/2000/svg" xmlns:xlink="http://www.w3.org/1999/xlink">
    <title>Group 2</title>
    <g id="High-Fid-Prototype-(Final)" stroke="none" stroke-width="1" fill="none" fill-rule="evenodd">
        <g id="iPhone-15-Pro-what" transform="translate(-54, -327)">
            <g id="Group-2" transform="translate(60.5311, 327)">
                <path d="M19.952268,80.7702994 C6.94871536,75.8618368 5.53073504,61.7411877 6.87598714,56.0020762 C7.54417014,53.1514754 9.51637019,49.1884488 12.0472486,46.276105 C14.611785,43.3250301 17.7391261,41.4386499 19.0028353,40.7154728 C20.676724,39.7575642 23.1613546,38.777982 26.4567271,37.7767263 C29.1624831,20.8356334 36.6454887,9.43307109 48.905744,3.56903954 C57.0686372,-0.335239933 71.9249241,-2.42015705 84.7009738,4.75177282 C91.5062415,8.57196009 99.9618003,17.7549705 100.992428,22.7583489 C101.406591,24.7689839 104.117846,24.0193253 109.518779,24.7918443 C117.557835,25.9417055 128.62789,33.7284765 132.17098,42.8707672 C135.080266,50.3776466 134.968742,57.2547605 133.271797,62.3888906 C131.478477,67.8146024 128.425005,71.6328014 127.566226,72.3744346 C125.936065,73.7822265 121.636124,79.6447597 112.958683,81.108048 C96.2344984,83.9282695 80.5732204,82.2238361 66.6001754,82.5465921 C44.8537117,83.0489022 27.8689863,83.7586301 19.952268,80.7702994 Z" id="Path-2" fill="#3F4B7F"></path>
                <polyline id="Path-3" stroke="#3F4B7F" stroke-width="10" stroke-linecap="round" stroke-linejoin="round" transform="translate(16.4516, 82.1098) rotate(72) translate(-16.4516, -82.1098)" points="19.633734 65.8454929 19.633734 82.1097787 19.633734 98.3740644 13.2694483 98.3740644"></polyline>
                <polyline id="Path-3" stroke="#3F4B7F" stroke-width="10" stroke-linecap="round" stroke-linejoin="round" transform="translate(51.4332, 84.7448) rotate(62) translate(-51.4332, -84.7448)" points="54.6152937 68.4804985 54.6152937 84.7447842 54.6152937 101.00907 48.251008 101.00907"></polyline>
                <circle id="Oval" stroke="#FFFCF7" stroke-width="4" fill="#000000" cx="39.9688724" cy="39.5" r="5.5"></circle>
                <circle id="Oval" stroke="#FFFCF7" stroke-width="4" fill="#000000" cx="60.9688724" cy="39.5" r="5.5"></circle>
                <path d="M39.4688724,53.5 C41.559475,53.5 44.5670581,53.5 48.4916216,53.5 C52.416185,53.5 56.0752686,53.5 59.4688724,53.5" id="Path-4" stroke="#000000" stroke-width="3" stroke-linecap="round" stroke-linejoin="round"></path>
            </g>
        </g>
    </g>
</svg>