<?xml version="1.0" encoding="UTF-8"?>
<svg width="19px" height="21px" viewBox="0 0 19 21" version="1.1" xmlns="http://www.w3.org/2000/svg" xmlns:xlink="http://www.w3.org/1999/xlink">
    <title>podcasts</title>
    <g id="High-Fid-Prototype" stroke="none" stroke-width="1" fill="none" fill-rule="evenodd">
        <g id="Home-page-SHADEN" transform="translate(-187, -747)" fill="#FFFFFF">
            <g id="podcast-button" transform="translate(157, 737)">
                <g id="podcasts" transform="translate(30, 10)">
                    <path d="M12.8748295,17.3262921 C12.8999255,17.1378413 13.0192916,16.9635751 13.1906548,16.8792789 C15.9428299,15.5257916 17.8354525,12.705631 17.8354525,9.44592573 C17.8354525,4.86857071 14.1035436,1.15791531 9.49997089,1.15791531 C4.8964564,1.15791531 1.1645475,4.86857071 1.1645475,9.44592573 C1.1645475,12.6890149 3.03789683,15.4970753 5.76742148,16.8585522 C5.94064792,16.9449326 6.05815076,17.1436888 6.07410506,17.335787 C6.10921617,17.7584839 5.67396654,18.1049322 5.29158737,17.916771 C2.15604324,16.373733 0,13.1601707 0,9.44592573 C0,4.22905409 4.25327682,0 9.49997089,0 C14.7467232,0 19,4.22905409 19,9.44592573 C19,13.1863974 16.8134456,16.4190654 13.6418587,17.9491926 C13.2453885,18.1404802 12.8168933,17.760684 12.8748295,17.3262921 Z" id="Path" fill-rule="nonzero"></path>
                    <path d="M13.0523541,13.3646793 C13.0350835,13.8849188 13.6314253,14.2000768 14.0172338,13.8383147 C15.2398569,12.6919327 16,11.0844939 16,9.30483983 C16,5.82274164 13.0898831,3 9.5,3 C5.91011685,3 3,5.82274164 3,9.30483983 C3,11.0855952 3.76109921,12.6939615 4.9850371,13.8405173 C5.37753864,14.208134 5.9792588,13.8943672 5.95039487,13.3658966 C5.94107236,13.1952464 5.85932113,13.0512023 5.73520029,12.9298807 C4.78328844,11.9998257 4.19519348,10.718906 4.19519348,9.30483983 C4.19519348,6.46302757 6.57022221,4.15930823 9.5,4.15930823 C12.4297778,4.15930823 14.8048065,6.46302757 14.8048065,9.30483983 C14.8048065,10.718964 14.2167116,11.9998257 13.2647997,12.9299387 C13.1391849,13.0526515 13.058091,13.1918264 13.0523541,13.3646793 Z" id="Path" fill-rule="nonzero"></path>
                    <path d="M11,8 C11,9.10458545 10.1045855,10 9,10 C7.89541455,10 7,9.10458545 7,8 C7,6.89546616 7.89541455,6 9,6 C10.1045855,6 11,6.89546616 11,8 Z M9,8.96782185 C9.53451346,8.96782185 9.96782185,8.53451346 9.96782185,8 C9.96782185,7.46548654 9.53451346,7.03217815 9,7.03217815 C8.46548654,7.03217815 8.03217815,7.46548654 8.03217815,8 C8.03217815,8.53451346 8.46548654,8.96782185 9,8.96782185 Z" id="Shape"></path>
                    <path d="M7.49620131,18.5819959 C7.26944733,17.1165692 7.02989126,15.6467366 7.00072423,14.1630564 C6.92995042,11.279067 12.0700496,11.2788954 11.9992758,14.1630564 C11.9701691,15.6467366 11.7306131,17.1165692 11.5038591,18.5819959 C11.3912369,19.3110471 11.3068156,19.6756013 11.1941934,19.9778992 C10.686337,21.3413582 8.31317991,21.3400422 7.80580655,19.9778992 C7.69324479,19.6756013 7.60876308,19.3110471 7.49620131,18.5819959 Z M10.4790881,13.4308581 C10.6641749,13.5725942 10.8007104,13.7771588 10.7918938,14.1364487 L10.7917731,14.1417703 C10.7635722,15.5768126 10.5281225,16.9989803 10.3088565,18.4162842 C10.1984083,19.1312019 10.1270306,19.4044315 10.0552906,19.597037 C10.0204472,19.6905359 9.87141155,19.8556754 9.50015097,19.855561 C9.12852806,19.855561 8.97937165,19.6900209 8.94470939,19.597037 C8.87296938,19.4044315 8.80159169,19.1308585 8.69114348,18.4159981 C8.47187751,16.9987514 8.23648815,15.5766982 8.20828733,14.1417703 L8.20816655,14.1364487 C8.19935002,13.7772161 8.33588551,13.5726514 8.52097231,13.4309153 C8.73951364,13.2635443 9.09036334,13.1444104 9.50003019,13.1444104 C9.90969704,13.1444104 10.2605468,13.2635443 10.4790881,13.4308581 Z" id="Shape"></path>
                </g>
            </g>
        </g>
    </g>
</svg>