<?xml version="1.0" encoding="UTF-8"?>
<svg width="393px" height="852px" viewBox="0 0 393 852" version="1.1" xmlns="http://www.w3.org/2000/svg" xmlns:xlink="http://www.w3.org/1999/xlink">
    <title>iPhone 15 Pro BG</title>
    <g id="iPhone-15-Pro-BG" stroke="none" stroke-width="1" fill="none" fill-rule="evenodd">
        <rect fill="#F7EEEF" x="0" y="0" width="393" height="852"></rect>
        <path d="M-3.71618766,656.740607 C28.2989476,627.056176 75.9215736,630.583374 124.435976,635.081809 L127.437875,635.361019 L128.939436,635.501023 C147.321429,637.215095 165.771173,638.934721 183.5,638.934721 C241.847073,638.934721 303.747632,642.020951 350.648329,667.652417 C385.331236,686.6068 411.788229,717.908383 422.51049,769.424557 C425.835092,785.397939 443.580345,909.338428 434.030558,990.795658 C431.292255,1014.15268 426.316861,1034.01245 418.085155,1046.79266 C414.42286,1052.47858 410.117342,1056.75628 405.067471,1059.29031 C400.3137,1061.67576 394.903074,1062.51001 388.762675,1061.53398 C327.487782,1051.79415 285.891303,1010.80738 248.036116,973.543335 C212.54733,938.60874 180.323496,906.973843 138.439778,906.973843 C99.9194555,906.973843 68.3766582,915.527445 43.0116665,922.408873 C24.3365781,927.475356 9.02706442,931.643025 -3.24136399,930.758271 C-12.7376804,930.073432 -20.3887587,926.332649 -26.3460775,917.569248 C-37.9931371,900.43606 -43.2107525,864.360595 -43.2107525,795.127466 C-43.2107525,720.727872 -27.9609142,679.220315 -3.71618766,656.740607 Z" id="Oval" stroke="#E3B7AA" fill="#E3B7AA" transform="translate(196.8052, 847.0217) scale(-1, -1) translate(-196.8052, -847.0217)"></path>
        <g id="Bars/Status-Bars/iPhone/Dark" transform="translate(21, 8)">
            <g id="Battery" transform="translate(336, 4.6)">
                <path d="M5.4141136,0.5 L19.5858864,0.5 C21.2481669,0.5 21.9150834,0.667973625 22.5644187,1.01524194 C23.1767364,1.34271303 23.657287,1.82326355 23.9847581,2.43558126 C24.3320264,3.08491655 24.5,3.75183307 24.5,5.4141136 L24.5,7.5858864 C24.5,9.24816693 24.3320264,9.91508345 23.9847581,10.5644187 C23.657287,11.1767364 23.1767364,11.657287 22.5644187,11.9847581 C21.9150834,12.3320264 21.2481669,12.5 19.5858864,12.5 L5.4141136,12.5 C3.75183307,12.5 3.08491655,12.3320264 2.43558126,11.9847581 C1.82326355,11.657287 1.34271303,11.1767364 1.01524194,10.5644187 C0.667973625,9.91508345 0.5,9.24816693 0.5,7.5858864 L0.5,5.4141136 C0.5,3.75183307 0.667973625,3.08491655 1.01524194,2.43558126 C1.34271303,1.82326355 1.82326355,1.34271303 2.43558126,1.01524194 C3.08491655,0.667973625 3.75183307,0.5 5.4141136,0.5 Z" id="Border" stroke="#FFFFFF" opacity="0.35"></path>
                <path d="M25.9,4.66666667 L25.9,8.66666667 C26.7047311,8.32789015 27.228038,7.53979995 27.228038,6.66666667 C27.228038,5.79353339 26.7047311,5.00544318 25.9,4.66666667" id="Cap" fill="#FFFFFF" fill-rule="nonzero" opacity="0.4"></path>
                <path d="M5.0048565,2 L19.5951435,2 C20.7095419,2 21.1136497,2.11603201 21.5210571,2.33391588 C21.9284645,2.55179975 22.2482003,2.87153546 22.4660841,3.27894287 C22.683968,3.68635028 22.8,4.09045808 22.8,5.2048565 L22.8,7.7951435 C22.8,8.90954192 22.683968,9.31364972 22.4660841,9.72105713 C22.2482003,10.1284645 21.9284645,10.4482003 21.5210571,10.6660841 C21.1136497,10.883968 20.7095419,11 19.5951435,11 L5.0048565,11 C3.89045808,11 3.48635028,10.883968 3.07894287,10.6660841 C2.67153546,10.4482003 2.35179975,10.1284645 2.13391588,9.72105713 C1.91603201,9.31364972 1.8,8.90954192 1.8,7.7951435 L1.8,5.2048565 C1.8,4.09045808 1.91603201,3.68635028 2.13391588,3.27894287 C2.35179975,2.87153546 2.67153546,2.55179975 3.07894287,2.33391588 C3.48635028,2.11603201 3.89045808,2 5.0048565,2 Z" id="Capacity" fill="#FFFFFF" fill-rule="nonzero"></path>
            </g>
            <path d="M319.27131,7.62060942 C321.758421,7.62071261 324.150428,8.5257199 325.952938,10.1485798 C326.088672,10.2738707 326.305628,10.2722903 326.43931,10.1450368 L327.736801,8.90496721 C327.80449,8.8404246 327.84223,8.7529979 327.841674,8.66203313 C327.841106,8.57106836 327.80229,8.48406563 327.733808,8.42027715 C323.002795,4.12657428 315.539076,4.12657428 310.808064,8.42027715 C310.739532,8.48401829 310.700647,8.5709946 310.700008,8.66195949 C310.699384,8.75292439 310.737056,8.84037767 310.804696,8.90496721 L312.102561,10.1450368 C312.236158,10.2724823 312.453282,10.274064 312.588933,10.1485798 C314.391673,8.52561337 316.783955,7.62060348 319.27131,7.62060942 L319.27131,7.62060942 Z M319.269525,11.7627299 C320.626844,11.7626471 321.935726,12.2649101 322.941844,13.1719252 C323.077926,13.3006513 323.292292,13.2978605 323.424946,13.1656358 L324.712228,11.8707595 C324.780019,11.8028396 324.817633,11.7107003 324.816674,11.6149555 C324.815678,11.5192108 324.77619,11.4278519 324.707025,11.3613182 C321.643193,8.52400504 316.898458,8.52400504 313.834625,11.3613182 C313.765418,11.4278511 313.725932,11.5192558 313.725008,11.6150315 C313.724115,11.7108071 313.761861,11.8029377 313.829794,11.8707595 L315.116704,13.1656358 C315.249359,13.2978605 315.463724,13.3006513 315.599806,13.1719252 C316.60526,12.2655094 317.913102,11.7632894 319.269525,11.7627299 L319.269525,11.7627299 Z M321.689169,14.7800753 C321.756467,14.7076346 321.793528,14.6079465 321.791603,14.5045473 C321.789677,14.4011481 321.748936,14.3032027 321.678998,14.2338361 C320.288899,12.9442768 318.252973,12.9442768 316.862873,14.2338361 C316.792887,14.303147 316.752078,14.4010615 316.750084,14.5044612 C316.74809,14.6078609 316.785087,14.7075806 316.852339,14.7800753 L319.029366,17.1893446 C319.093174,17.2601513 319.180166,17.3 319.270936,17.3 C319.361705,17.3 319.448698,17.2601513 319.512505,17.1893446 L321.689169,14.7800753 Z" id="Wifi" fill="#FFFFFF" fill-rule="nonzero"></path>
            <path d="M285.066667,12.5 L286.133333,12.5 C286.722437,12.5 287.2,13.0148725 287.2,13.65 L287.2,15.95 C287.2,16.5851275 286.722437,17.1 286.133333,17.1 L285.066667,17.1 C284.477563,17.1 284,16.5851275 284,15.95 L284,13.65 C284,13.0148725 284.477563,12.5 285.066667,12.5 L285.066667,12.5 Z M290.366667,10.1 L291.433333,10.1 C292.022437,10.1 292.5,10.6223345 292.5,11.2666667 L292.5,15.9333333 C292.5,16.5776655 292.022437,17.1 291.433333,17.1 L290.366667,17.1 C289.777563,17.1 289.3,16.5776655 289.3,15.9333333 L289.3,11.2666667 C289.3,10.6223345 289.777563,10.1 290.366667,10.1 Z M295.766667,7.5 L296.833333,7.5 C297.422437,7.5 297.9,8.01576797 297.9,8.652 L297.9,15.948 C297.9,16.584232 297.422437,17.1 296.833333,17.1 L295.766667,17.1 C295.177563,17.1 294.7,16.584232 294.7,15.948 L294.7,8.652 C294.7,8.01576797 295.177563,7.5 295.766667,7.5 Z M302.133333,5.1 C302.722437,5.1 303.2,5.60367966 303.2,6.225 L303.2,15.975 C303.2,16.5963203 302.722437,17.1 302.133333,17.1 L301.066667,17.1 C300.477563,17.1 300,16.5963203 300,15.975 L300,6.225 C300,5.60367966 300.477563,5.1 301.066667,5.1 L302.133333,5.1 Z" id="Cellular-Connection" fill="#FFFFFF" fill-rule="nonzero"></path>
            <g id="Time-Style" fill="#FFFFFF" font-family="SFPro-Semibold, SF Pro" font-size="17" font-weight="500" line-spacing="22">
                <text id="Time">
                    <tspan x="9.63301671" y="16">9:41</tspan>
                </text>
            </g>
        </g>
        <path d="M2.6256597,-22.4760606 C35.7084065,-52.1079942 84.9176807,-48.5893766 135.051797,-44.0988593 L138.153923,-43.8201378 L139.70562,-43.6803763 L144.089065,-43.2862847 C161.624845,-41.7157913 179.16686,-40.2533921 196.074251,-40.2533921 C256.363562,-40.2533921 320.323871,-37.1718987 368.78548,-11.5873926 C404.619646,7.3306629 431.957453,38.5709175 443.035819,89.9892437 C446.470693,105.931623 464.804595,229.631555 454.938052,310.930703 C452.109132,334.240675 446.969082,354.060903 438.464904,366.815462 C434.679872,372.492248 430.229363,376.762547 425.010386,379.29244 C420.093347,381.675968 414.496918,382.509613 408.145537,381.53435 C344.832067,371.812474 301.849878,330.902619 262.734832,293.706857 C226.073753,258.844653 192.78731,227.270566 149.518226,227.270566 C109.722579,227.270566 77.1355617,235.807306 50.9308237,242.674965 C31.6313428,247.732915 15.8099388,251.892619 3.13148102,251.009367 C-6.68577883,250.325441 -14.596988,246.591842 -20.7561247,237.83945 C-32.7891078,220.740075 -38.178904,184.734465 -38.178904,115.639313 C-38.178904,41.3865979 -22.422707,-0.0404525136 2.6256597,-22.4760606 Z" id="Oval" stroke="#957FA6" fill="#957FA6"></path>
        <path d="M10.5059691,-136.082729 C56.141048,-167.386166 123.668307,-167.300508 184.316442,-167.256657 C186.579075,-167.255021 188.832174,-167.253392 191.074251,-167.253392 C251.363562,-167.253392 315.323871,-164.171899 363.78548,-138.587393 C399.619646,-119.669337 426.957453,-88.4290825 438.035819,-37.0107563 C438.196958,-36.2628561 438.394484,-35.3593021 438.623738,-34.3106153 C443.287517,-12.9769187 461.116529,68.5251835 452.718554,121.313357 C450.216423,137.041304 445.39219,150.21759 437.145971,158.43346 C429.957826,165.595151 420.165073,168.94984 407.075886,166.939977 C346.720305,157.67229 303.736445,136.436881 264.964937,117.287233 C224.960049,97.5284054 189.425718,79.9955431 144,79.9955431 C106.802731,79.9955431 75.9210914,85.0361368 50.677565,89.1575984 C14.4165562,95.077863 -10.2035294,99.2191321 -25.0736425,83.3142619 C-37.7150903,69.7931416 -43.2877456,41.8757469 -43.1818829,-11.359674 C-43.0508173,-76.0577232 -21.7775678,-113.937799 10.5059691,-136.082729 Z" id="Oval" stroke="#5F3F82" fill="#5F3F82"></path>
    </g>
</svg>