<?xml version="1.0" encoding="UTF-8"?>
<svg width="143px" height="102px" viewBox="0 0 143 102" version="1.1" xmlns="http://www.w3.org/2000/svg" xmlns:xlink="http://www.w3.org/1999/xlink">
    <title>Group 2</title>
    <g id="High-Fid-Prototype-(Final)" stroke="none" stroke-width="1" fill="none" fill-rule="evenodd">
        <g id="iPhone-15-Pro-what" transform="translate(-54, -327)">
            <g id="Group-2" transform="translate(60.5311, 327)">
                <polyline id="Path-3" stroke="#5F3F82" stroke-width="10" stroke-linecap="round" stroke-linejoin="round" transform="translate(16.4516, 82.1098) rotate(72) translate(-16.4516, -82.1098)" points="19.633734 65.8454929 19.633734 82.1097787 19.633734 98.3740644 13.2694483 98.3740644"></polyline>
                <polyline id="Path-3" stroke="#5F3F82" stroke-width="10" stroke-linecap="round" stroke-linejoin="round" transform="translate(51.4332, 84.7448) rotate(62) translate(-51.4332, -84.7448)" points="54.6152937 68.4804985 54.6152937 84.7447842 54.6152937 101.00907 48.251008 101.00907"></polyline>
                <path d="M20.1629461,82.4303551 C6.95621291,77.4210099 5.51607664,63.010142 6.88234831,57.1530756 C7.56097167,54.243887 9.56398734,50.1994092 12.1344107,47.2272085 C14.739018,44.2154808 17.9152238,42.2903302 19.1986784,41.5522897 C20.8987216,40.5746934 23.4221746,39.5749781 26.7690374,38.5531438 C29.5170707,21.2638639 37.1169983,9.62694711 49.5688201,3.64239329 C57.8592585,-0.342130052 72.947675,-2.46989805 85.9233504,4.84943505 C92.8349504,8.74813787 101.422627,18.1198848 102.469358,23.2260967 C102.889993,25.2780559 105.643611,24.5129897 111.128934,25.3013861 C119.293601,26.4748802 130.536625,34.4216911 134.135075,43.7518815 C137.089819,51.4130482 136.976552,58.4315061 135.253093,63.671157 C133.431753,69.2083823 130.330569,73.105056 129.458372,73.8619319 C127.80274,75.2986578 123.435612,81.2816824 114.622586,82.7750454 C97.6370863,85.6532304 81.7311008,83.9137662 67.539727,84.2431557 C45.4534748,84.7557897 28.2033631,85.4801044 20.1629461,82.4303551 Z" id="Path-2" fill="#5F3F82"></path>
                <ellipse id="Oval" stroke="#FFFCF7" fill="#000000" cx="44.6040075" cy="39.5882353" rx="6.52702703" ry="6.55882353"></ellipse>
                <ellipse id="Oval" stroke="#FFFCF7" fill="#000000" cx="65.6850886" cy="39.5882353" rx="6.52702703" ry="6.55882353"></ellipse>
                <path d="M46.3607643,57.2352941 C49.0102288,53.7058824 52.2309496,51.9411765 56.0229264,51.9411765 C59.8149033,51.9411765 63.035624,53.7058824 65.6850886,57.2352941" id="Path-4" stroke="#000000" stroke-width="3" stroke-linecap="round" stroke-linejoin="round"></path>
            </g>
        </g>
    </g>
</svg>