<?xml version="1.0" encoding="UTF-8"?>
<svg width="146px" height="131px" viewBox="0 0 146 131" version="1.1" xmlns="http://www.w3.org/2000/svg" xmlns:xlink="http://www.w3.org/1999/xlink">
    <title>small_happy</title>
    <g id="High-Fid-Prototype-(Final)" stroke="none" stroke-width="1" fill="none" fill-rule="evenodd">
        <g id="iPhone-15-Pro-happy" transform="translate(-120, -330)">
            <g id="small_happy" transform="translate(120, 330)">
                <ellipse id="Oval" stroke="#CFC1C2" fill="#CFC1C2" cx="77.2846715" cy="115.343066" rx="67.3467153" ry="15.1569343"></ellipse>
                <polyline id="Path-3" stroke="#E3B7AA" stroke-width="5" stroke-linecap="round" stroke-linejoin="round" points="44.6564885 73.6134454 44.6564885 96.302521 44.6564885 118.991597 35.7251908 118.991597"></polyline>
                <polyline id="Path-3" stroke="#E3B7AA" stroke-width="5" stroke-linecap="round" stroke-linejoin="round" points="78.3969466 74.6218487 78.3969466 97.3109244 78.3969466 120 69.4656489 120"></polyline>
                <path d="M13.6940737,83.4116689 C0.487340546,78.3426886 -0.952795721,63.7602627 0.413475948,57.8334694 C1.09209931,54.8896475 3.09511498,50.7970212 5.66553838,47.7894371 C8.27014561,44.7418555 11.4463514,42.7937865 12.7298061,42.0469599 C14.4298493,41.0577255 16.9533022,40.0461088 20.300165,39.0121098 C23.0481984,21.5170052 30.648126,9.74155363 43.0999478,3.68575512 C51.3903862,-0.346203029 66.4788026,-2.4993016 79.454478,4.90716642 C86.366078,8.85228237 94.953755,18.3355978 96.0004861,23.5025979 C96.4211207,25.5789851 99.1747386,24.804811 104.660062,25.6025931 C112.824728,26.7900573 124.067753,34.8314731 127.666203,44.2727372 C130.620947,52.0251083 130.50768,59.1271192 128.78422,64.4291469 C126.96288,70.0322916 123.861697,73.9753542 122.9895,74.7412406 C121.333868,76.1950704 116.966739,82.2493215 108.153714,83.7604626 C91.1682139,86.6729117 75.2622284,84.9127396 61.0708547,85.2460504 C38.9846024,85.7647871 21.7344907,86.4977247 13.6940737,83.4116689 Z" id="Path-2" fill="#E3B7AA"></path>
                <ellipse id="Oval" stroke="#FFFCF7" stroke-width="2" fill="#000000" cx="35.2290076" cy="40.8403361" rx="5.45038168" ry="5.55462185"></ellipse>
                <ellipse id="Oval" stroke="#FFFCF7" stroke-width="2" fill="#000000" cx="56.0687023" cy="40.8403361" rx="5.45038168" ry="5.55462185"></ellipse>
                <path d="M37.7099237,55.4621849 C40.2950362,59.4957983 43.4375299,61.512605 47.1374046,61.512605 C50.8372793,61.512605 53.9797729,59.4957983 56.5648855,55.4621849" id="Path-4" stroke="#000000" stroke-width="3" stroke-linecap="round" stroke-linejoin="round"></path>
            </g>
        </g>
    </g>
</svg>