<?xml version="1.0" encoding="UTF-8"?>
<svg width="141px" height="102px" viewBox="0 0 141 102" version="1.1" xmlns="http://www.w3.org/2000/svg" xmlns:xlink="http://www.w3.org/1999/xlink">
    <title>Group 2</title>
    <g id="High-Fid-Prototype-(Final)" stroke="none" stroke-width="1" fill="none" fill-rule="evenodd">
        <g id="iPhone-15-Pro-what" transform="translate(-54, -327)">
            <g id="Group-2" transform="translate(60.5311, 327)">
                <path d="M19.952268,80.7702994 C6.94871536,75.8618368 5.53073504,61.7411877 6.87598714,56.0020762 C7.54417014,53.1514754 9.51637019,49.1884488 12.0472486,46.276105 C14.611785,43.3250301 17.7391261,41.4386499 19.0028353,40.7154728 C20.676724,39.7575642 23.1613546,38.777982 26.4567271,37.7767263 C29.1624831,20.8356334 36.6454887,9.43307109 48.905744,3.56903954 C57.0686372,-0.335239933 71.9249241,-2.42015705 84.7009738,4.75177282 C91.5062415,8.57196009 99.9618003,17.7549705 100.992428,22.7583489 C101.406591,24.7689839 104.117846,24.0193253 109.518779,24.7918443 C117.557835,25.9417055 128.62789,33.7284765 132.17098,42.8707672 C135.080266,50.3776466 134.968742,57.2547605 133.271797,62.3888906 C131.478477,67.8146024 128.425005,71.6328014 127.566226,72.3744346 C125.936065,73.7822265 121.636124,79.6447597 112.958683,81.108048 C96.2344984,83.9282695 80.5732204,82.2238361 66.6001754,82.5465921 C44.8537117,83.0489022 27.8689863,83.7586301 19.952268,80.7702994 Z" id="Path-2" fill="#3F4B7F"></path>
                <polyline id="Path-3" stroke="#3F4B7F" stroke-width="10" stroke-linecap="round" stroke-linejoin="round" transform="translate(16.4516, 82.1098) rotate(72) translate(-16.4516, -82.1098)" points="19.633734 65.8454929 19.633734 82.1097787 19.633734 98.3740644 13.2694483 98.3740644"></polyline>
                <polyline id="Path-3" stroke="#3F4B7F" stroke-width="10" stroke-linecap="round" stroke-linejoin="round" transform="translate(51.4332, 84.7448) rotate(62) translate(-51.4332, -84.7448)" points="54.6152937 68.4804985 54.6152937 84.7447842 54.6152937 101.00907 48.251008 101.00907"></polyline>
                <path d="M40.9270297,37.7946052 L42.0573617,37.7951208 L42.9375723,37.7945692 C44.6291397,37.8004354 46.1047089,37.8417112 47.0697704,38.4593296 C47.7651171,38.9043365 48.1310345,39.6793032 48.1310345,40.9371552 C48.1310345,42.7162838 47.4009481,44.3267107 46.2213892,45.4925337 C45.0396982,46.660464 43.4070723,47.3823529 41.6040075,47.3823529 C39.8009427,47.3823529 38.1683168,46.660464 36.9866258,45.4925337 C35.8070669,44.3267107 35.0769805,42.7162838 35.0769805,40.9371552 C35.0769805,39.6793032 35.4428979,38.9043365 36.1382446,38.4593296 C37.1033061,37.8417112 38.5788753,37.8004354 40.2686836,37.7945722 L40.9270297,37.7946052 Z" id="Oval" stroke="#FFFCF7" fill="#000000"></path>
                <path d="M62.0081148,37.7945826 L63.1384113,37.7950891 L64.0186072,37.794593 C65.7100782,37.8006152 67.1855716,37.8423348 68.1506303,38.460126 C68.8460826,38.9053262 69.2121156,39.6803983 69.2121156,40.9382085 C69.2121156,42.7170377 68.4820353,44.32719 67.3024973,45.4928156 C66.1207993,46.6605756 64.4881622,47.3823529 62.6850886,47.3823529 C60.8820149,47.3823529 59.2493778,46.6605756 58.0676799,45.4928156 C56.8881419,44.32719 56.1580616,42.7170377 56.1580616,40.9382085 C56.1580616,39.6803983 56.5240945,38.9053262 57.2195468,38.460126 C58.1846055,37.8423348 59.6600989,37.8006152 61.3498,37.7945961 L62.0081148,37.7945826 Z" id="Oval" stroke="#FFFCF7" fill="#000000"></path>
                <path d="M39.8472507,56.7058824 C41.2240556,55.5294118 42.5029085,54.9411765 43.6838094,54.9411765 C45.4551606,54.9411765 47.3766342,56.7058824 49.5094129,56.7058824 C51.1804321,56.7058824 52.501143,54.9411765 54.340494,54.9411765 C55.566728,54.9411765 57.1770883,55.5294118 59.1715751,56.7058824" id="Path-4" stroke="#000000" stroke-width="3" stroke-linecap="round" stroke-linejoin="round"></path>
            </g>
        </g>
    </g>
</svg>