<?xml version="1.0" encoding="UTF-8"?>
<svg width="393px" height="852px" viewBox="0 0 393 852" version="1.1" xmlns="http://www.w3.org/2000/svg" xmlns:xlink="http://www.w3.org/1999/xlink">
    <title>iPhone 15 Pro BGBG2</title>
    <g id="iPhone-15-Pro-BGBG2" stroke="none" stroke-width="1" fill="none" fill-rule="evenodd">
        <rect fill="#F7EEEF" x="0" y="0" width="393" height="852"></rect>
        <path d="M-18.4573757,48.8469027 C14.3069946,29.8738769 62.869278,31.9024772 112.511563,34.7629371 L115.615479,34.9426166 C116.650498,35.0027492 117.685852,35.0630605 118.721409,35.1233681 C137.707238,36.2290434 156.763026,37.3384954 175.074251,37.3384954 C235.390814,37.3384954 299.375613,39.3344166 347.857404,55.8819855 C383.644796,68.096764 410.982535,88.2445394 422.05025,121.455127 C425.481664,131.751676 443.79971,211.644551 433.942994,264.15305 C431.124695,279.166634 426.006702,291.9403 417.53285,300.156864 C410.160271,307.305593 400.244323,310.977371 387.119045,309.674387 C323.786644,303.387203 280.781451,276.935504 241.652144,252.879244 C205.017841,230.356885 171.765956,209.942357 128.518226,209.942357 C88.7397713,209.942357 56.1673012,215.459871 29.974054,219.897946 C-4.32646648,225.709683 -27.6712609,229.774777 -41.8267539,216.76984 C-53.8319913,205.740386 -59.178904,182.487827 -59.178904,137.948198 C-59.178904,90.0564385 -43.451911,63.3206118 -18.4573757,48.8469027 Z" id="Oval" stroke="#957FA6" fill="#957FA6"></path>
        <path d="M1.48377356,-121.492678 C47.1246887,-149.371135 114.658869,-149.296073 175.316481,-149.257019 C177.579101,-149.255562 179.832187,-149.254112 182.074251,-149.254112 C242.371561,-149.254112 306.338771,-146.508861 354.806192,-123.723795 C390.627244,-106.883925 417.963592,-79.0803077 429.038625,-33.3074043 C429.199785,-32.6413319 429.397337,-31.8366356 429.626621,-30.9026857 C434.28895,-11.911493 452.115638,60.6416508 443.720138,107.634288 C441.221305,121.621154 436.402913,133.341308 428.167044,140.648144 C420.971927,147.031628 411.169417,150.017711 398.067737,148.226272 C337.707321,139.972978 294.719531,121.062295 255.944815,104.008624 C215.946581,86.4168314 180.41892,70.8050751 135,70.8050751 C97.8061451,70.8050751 66.9273874,75.2933153 41.6861956,78.9630297 C5.40029212,84.2384899 -19.2190393,87.9246095 -34.0940386,73.7570846 C-46.7267642,61.7251878 -52.2876512,36.8730195 -52.1818832,-10.4893589 C-52.0508861,-68.0711767 -30.7825246,-101.783726 1.48377356,-121.492678 Z" id="Oval" stroke="#5F3F82" fill="#5F3F82"></path>
    </g>
</svg>