<?xml version="1.0" encoding="UTF-8"?>
<svg width="328px" height="243px" viewBox="0 0 328 243" version="1.1" xmlns="http://www.w3.org/2000/svg" xmlns:xlink="http://www.w3.org/1999/xlink">
    <title>Logo</title>
    <g id="High-Fid-Prototype-(Final)" stroke="none" stroke-width="1" fill="none" fill-rule="evenodd">
        <g id="Artboard" transform="translate(-220, -847)">
            <g id="Logo" transform="translate(230.2364, 848)">
                <ellipse id="Oval" fill="#CFC1C2" cx="184.763606" cy="176" rx="133" ry="28.5"></ellipse>
                <polyline id="Path-3" stroke="#2E3760" stroke-width="15" stroke-linecap="round" stroke-linejoin="round" transform="translate(129.4314, 196.4658) rotate(53) translate(-129.4314, -196.4658)" points="134.940361 146.465794 134.940361 196.465794 134.940361 246.465794 123.922501 246.465794"></polyline>
                <polyline id="Path-3" stroke="#3F4B7F" stroke-width="15" stroke-linecap="round" stroke-linejoin="round" transform="translate(46.4018, 185.03) rotate(61) translate(-46.4018, -185.03)" points="51.9106977 135.030002 51.9106977 185.030002 51.9106977 235.030002 40.8928376 235.030002"></polyline>
                <g id="cloud_head_smile" transform="translate(27.7636, 0)">
                    <path d="M29.6002671,178.083913 C1.05340533,167.26164 -2.0595046,136.128161 0.893744164,123.474457 C2.36061466,117.189398 6.69021007,108.45164 12.2462791,102.030448 C17.8762378,95.5238616 24.7417289,91.3647341 27.5159655,89.7702593 C31.1906742,87.6582439 36.6452148,85.4984422 43.8795874,83.2908544 C49.8195672,45.9388061 66.247103,20.798217 93.1621948,7.86908718 C111.082296,-0.739143467 143.696489,-5.33600891 171.74391,10.4768003 C186.683599,18.8996229 205.246193,39.1465012 207.508743,50.1780465 C208.417961,54.6111332 214.370012,52.9582714 226.226748,54.6615362 C243.874989,57.1967724 268.177219,74.3651951 275.955407,94.522294 C282.3422,111.073606 282.09737,126.2364 278.372045,137.556229 C274.435149,149.518943 267.731822,157.937381 265.846535,159.572549 C262.267822,162.676475 252.828106,175.602301 233.778413,178.828588 C197.063601,185.046667 162.682201,181.288699 132.007001,182.000318 C84.2667175,183.107821 46.9799376,184.672642 29.6002671,178.083913 Z" id="Path-2" fill="#3F4B7F"></path>
                    <circle id="Oval" stroke="#FFFCF7" stroke-width="4" fill="#000000" cx="69" cy="82" r="17"></circle>
                    <circle id="Oval" stroke="#FFFCF7" stroke-width="4" fill="#000000" cx="121.969697" cy="82" r="17"></circle>
                </g>
                <path d="M156.713499,0.497158247 C170.558589,0.165719416 182.791066,2.53943799 193.41093,7.61831398 C200.764009,11.1348734 207.475663,15.1609883 212.588096,19.6373408 C218.551296,24.858609 223.128985,30.1992227 226.071356,34.2214182 C231.789732,42.0383888 236.054679,49.3019812 236.054679,51.9179882 C236.054679,54.5339953 239.407085,51.9199719 250.628067,54.0051827 C261.84905,56.0903935 265.639668,57.6402534 275.232036,63 C284.824403,68.3597466 287.280014,71.5442443 292.820886,77.5804696 C298.361758,83.616695 302.935284,91.1033839 305.849445,99.5 C308.763606,107.896616 309.962501,120.40113 308.763606,127.864345 C307.564711,135.32756 306.031142,141.471694 299.900983,151.513893 C293.770824,161.556092 290.733299,162.866074 283.977938,168.467306 C277.222578,174.068539 273.243279,176 269.010158,177.127134 C264.777037,178.254267 257.197264,179.517629 245.292257,180.986166 C237.355585,181.965191 229.391672,181.965191 221.400517,180.986166 C235.757594,175.724496 246.344266,170.244102 253.160531,164.544984 C263.384929,155.996306 265.785527,149.998701 269.010158,142.619936 C272.23479,135.241172 273.773027,124.662957 270.230399,113.750631 C266.687772,102.838305 258.952427,96.2049389 253.160531,91.5 C247.368635,86.7950611 242.433491,83.9923169 237.572279,80.6961497 C232.711068,77.3999825 226.071356,74.5317113 221.400517,72.8806969 C216.729679,71.2296824 217.631151,69.1703106 215.471464,63 C213.311777,56.8296894 209.372172,47.911302 204.927133,41.9588577 C200.482094,36.0064134 194.044385,30.2760153 184.763606,22.6468738 C175.482827,15.0177322 169.659902,10.7626359 164.933507,7.61831398 C161.782577,5.52209936 159.042574,3.14838079 156.713499,0.497158247 Z" id="Path-6" stroke="#2E3760" fill="#2E3760"></path>
            </g>
        </g>
    </g>
</svg>