<?xml version="1.0" encoding="UTF-8"?>
<svg width="140px" height="128px" viewBox="0 0 140 128" version="1.1" xmlns="http://www.w3.org/2000/svg" xmlns:xlink="http://www.w3.org/1999/xlink">
    <title>small_sad</title>
    <g id="High-Fid-Prototype-(Final)" stroke="none" stroke-width="1" fill="none" fill-rule="evenodd">
        <g id="iPhone-15-Pro-happy" transform="translate(-120, -330)">
            <g id="small_sad" transform="translate(120, 330)">
                <g id="small_emo1" transform="translate(9, 97)" fill="#CFC1C2" stroke="#CFC1C2">
                    <ellipse id="Oval" cx="65.5" cy="15.5" rx="65" ry="15"></ellipse>
                </g>
                <polyline id="Path-3" stroke="#5F3F82" stroke-width="5" stroke-linecap="round" stroke-linejoin="round" points="42.1621622 74.1176471 42.1621622 96.1764706 42.1621622 118.235294 33.3783784 118.235294"></polyline>
                <polyline id="Path-3" stroke="#5F3F82" stroke-width="5" stroke-linecap="round" stroke-linejoin="round" points="75.5405405 75.8823529 75.5405405 97.9411765 75.5405405 120 66.7567568 120"></polyline>
                <path d="M13.6940737,82.4303551 C0.487340546,77.4210099 -0.952795721,63.010142 0.413475948,57.1530756 C1.09209931,54.243887 3.09511498,50.1994092 5.66553838,47.2272085 C8.27014561,44.2154808 11.4463514,42.2903302 12.7298061,41.5522897 C14.4298493,40.5746934 16.9533022,39.5749781 20.300165,38.5531438 C23.0481984,21.2638639 30.648126,9.62694711 43.0999478,3.64239329 C51.3903862,-0.342130052 66.4788026,-2.46989805 79.454478,4.84943505 C86.366078,8.74813787 94.953755,18.1198848 96.0004861,23.2260967 C96.4211207,25.2780559 99.1747386,24.5129897 104.660062,25.3013861 C112.824728,26.4748802 124.067753,34.4216911 127.666203,43.7518815 C130.620947,51.4130482 130.50768,58.4315061 128.78422,63.671157 C126.96288,69.2083823 123.861697,73.105056 122.9895,73.8619319 C121.333868,75.2986578 116.966739,81.2816824 108.153714,82.7750454 C91.1682139,85.6532304 75.2622284,83.9137662 61.0708547,84.2431557 C38.9846024,84.7557897 21.7344907,85.4801044 13.6940737,82.4303551 Z" id="Path-2" fill="#5F3F82"></path>
                <ellipse id="Oval" stroke="#FFFCF7" stroke-width="2" fill="#000000" cx="35.1351351" cy="40.5882353" rx="6.02702703" ry="6.05882353"></ellipse>
                <ellipse id="Oval" stroke="#FFFCF7" stroke-width="2" fill="#000000" cx="56.2162162" cy="40.5882353" rx="6.02702703" ry="6.05882353"></ellipse>
                <path d="M36.8918919,58.2352941 C39.5413565,54.7058824 42.7620772,52.9411765 46.5540541,52.9411765 C50.3460309,52.9411765 53.5667516,54.7058824 56.2162162,58.2352941" id="Path-4" stroke="#000000" stroke-width="3" stroke-linecap="round" stroke-linejoin="round"></path>
            </g>
        </g>
    </g>
</svg>