<?xml version="1.0" encoding="UTF-8"?>
<svg width="393px" height="852px" viewBox="0 0 393 852" version="1.1" xmlns="http://www.w3.org/2000/svg" xmlns:xlink="http://www.w3.org/1999/xlink">
    <title>iPhone 15 Pro BG3 </title>
    <g id="iPhone-15-Pro-BG3-" stroke="none" stroke-width="1" fill="none" fill-rule="evenodd">
        <rect fill="#957FA6" x="0" y="0" width="393" height="852"></rect>
        <path d="M4.48377356,-121.492678 C50.1246887,-149.371135 117.658869,-149.296073 178.316481,-149.257019 C180.579101,-149.255562 182.832187,-149.254112 185.074251,-149.254112 C245.371561,-149.254112 309.338771,-146.508861 357.806192,-123.723795 C393.627244,-106.883925 420.963592,-79.0803077 432.038625,-33.3074043 C432.199785,-32.6413319 432.397337,-31.8366356 432.626621,-30.9026857 C437.28895,-11.911493 455.115638,60.6416508 446.720138,107.634288 C444.221305,121.621154 439.402913,133.341308 431.167044,140.648144 C423.971927,147.031628 414.169417,150.017711 401.067737,148.226272 C340.707321,139.972978 297.719531,121.062295 258.944815,104.008624 C218.946581,86.4168314 183.41892,70.8050751 138,70.8050751 C100.806145,70.8050751 69.9273874,75.2933153 44.6861956,78.9630297 C8.40029212,84.2384899 -16.2190393,87.9246095 -31.0940386,73.7570846 C-43.7267642,61.7251878 -49.2876512,36.8730195 -49.1818832,-10.4893589 C-49.0508861,-68.0711767 -27.7825246,-101.783726 4.48377356,-121.492678 Z" id="Oval" stroke="#5F3F82" fill="#5F3F82"></path>
    </g>
</svg>